<svg width="234" height="679" viewBox="0 0 234 679" fill="none"
    xmlns="http://www.w3.org/2000/svg">
    <g clip-path="url(#clip0_27_7597)">
        <path d="M49.8445 632L38.9089 644.736C38.9089 644.736 12.0425 650.616 2.34132 673.197C1.76272 674.518 1.95559 675.936 2.64991 677.027C3.3828 678.196 4.6943 679 6.23724 679H85.7756C86.9521 679 88.0129 678.521 88.7844 677.755C89.5558 676.989 90.0187 675.916 89.9994 674.767L89.5365 643.357L49.8445 632Z" fill="#E03636"/>
        <path d="M85.754 679C86.9365 679 88.0027 678.517 88.7781 677.745C89.5535 676.973 90.0188 675.892 89.9994 674.734L89.5342 643.077L71.8351 638C68.3263 641.436 66 643.714 66 643.714C66 643.714 68.9854 662.322 66.9887 679H85.754Z" fill="#BA2424"/>
        <path d="M169.166 632L178.248 643.338C178.248 643.338 206.96 650.616 216.659 673.197C217.237 674.518 217.044 675.936 216.35 677.027C215.617 678.196 214.306 679 212.764 679H133.223C132.047 679 130.987 678.521 130.215 677.755C129.444 676.989 128.981 675.916 129.001 674.767L129.463 643.357L169.166 632Z" fill="#E03636"/>
        <path d="M143.078 642.815L139.158 640L129.453 642.873L129.001 674.71C128.982 675.894 129.434 676.962 130.188 677.738C130.942 678.515 131.978 679 133.128 679H145C142.267 663.043 143.078 642.815 143.078 642.815Z" fill="#BA2424"/>
        <path d="M50.8642 327.326C50.8642 327.326 32.9117 537.001 39.4224 644L89.9863 642.616C89.9863 642.616 92.8564 526.083 111.406 421.352C111.406 421.352 128.55 559.777 129.725 642.539L178.459 642.616C178.459 642.616 187.069 403.535 177.438 326L50.8642 327.326Z" fill="#7A4A3F"/>
        <path d="M128.682 643.288L142.531 643.308C149.838 572.846 127.515 414.808 127.515 414.808C138.284 411.038 140.006 401 140.006 401C104.83 411.404 79.1791 401 79.1791 401L100.468 414.808C85.8739 448.231 70.1508 612.635 66 644L89.2213 643.365C89.2213 643.365 92.0713 526.769 110.492 421.981C110.472 421.981 127.496 560.481 128.682 643.288Z" fill="#683A33"/>
        <path d="M2.62667 676.862C3.35976 678.128 4.6716 679 6.21495 679H85.7745C86.9513 679 88.0124 678.481 88.784 677.651C89.5557 676.82 90.0187 675.657 89.9994 674.412L89.9801 673H2.24083C1.79712 674.349 1.99004 675.761 2.62667 676.862Z" fill="#343F4C"/>
        <path d="M129.001 674.428C128.981 675.69 129.444 676.828 130.216 677.655C130.988 678.483 132.049 679 133.225 679H212.78C214.324 679 215.635 678.131 216.368 676.869C217.024 675.752 217.198 674.366 216.754 673H129.02L129.001 674.428Z" fill="#343F4C"/>
        <path d="M85.756 678.979C86.938 678.979 88.0037 678.462 88.7787 677.634C89.5538 676.807 90.0188 675.648 89.9994 674.407L89.98 673H67.5038C67.3875 675.007 67.2325 677.014 67 679H85.756V678.979Z" fill="#222933"/>
        <path d="M144.19 673H129.019L129.001 674.412C128.982 675.678 129.434 676.82 130.188 677.65C130.942 678.481 131.978 679 133.128 679H145C144.68 677.069 144.416 675.055 144.19 673Z" fill="#222933"/>
        <path d="M31.2915 401L37.268 410.963C37.268 410.963 42.4926 415.839 42.936 425.108C43.3794 434.378 49.8957 441.778 45.4615 443.724C41.0274 445.671 35.9377 439.639 35.0702 435.168C35.0702 435.168 26.0476 449.178 24.9873 454.651C23.9269 460.124 31.3879 471.436 27.2622 471.956C23.1365 472.477 17.6227 468.314 16.2924 460.548C16.2924 460.548 9.98822 460.721 8.13744 454.786C6.30594 448.831 1.2934 447 2.08384 439.908C2.87428 432.817 5.72757 411.618 5.72757 411.618L31.2915 401Z" fill="#FFBD6E"/>
        <path d="M35 435C35 435 27.8422 442.055 24.7236 447.501C21.5862 452.967 23.4461 464.596 24.7236 468.298C25.1369 469.5 26.1889 470.798 27.4101 472C31.4305 471.477 24.16 460.1 25.1932 454.595C26.2077 449.11 35 435 35 435Z" fill="#F7A952"/>
        <path d="M35 435C35.0762 435.328 35.2096 435.657 35.362 436L35 435Z" fill="#F7A952"/>
        <path d="M37.14 410.94L31.0986 401L28 402.269L28.916 412.305C28.916 412.305 35.6589 419.207 37.5103 425.051C39.3617 430.896 39.615 435.875 41.2131 441.643C41.3885 442.296 41.5054 442.931 41.5834 443.565C42.8501 444.084 44.1753 444.181 45.4421 443.623C49.9244 441.681 43.3568 434.299 42.8891 425.051C42.4214 415.804 37.14 410.94 37.14 410.94Z" fill="#F7A952"/>
        <path d="M40.534 196C40.534 196 0.299354 322.295 0.01045 334.555C-0.278454 346.797 5.51888 411.039 5.51888 411.039C5.51888 411.039 26.9941 413.576 37.0094 410.405C37.0094 410.405 33.9085 340.244 34.5633 334.555C35.2182 328.867 56 284.514 56 284.514L50.6842 229.803L40.534 196Z" fill="#DCFFFE"/>
        <path d="M37.2001 410.654C37.2001 410.654 34.1303 340.425 34.7786 334.731C35.4269 329.037 56 284.642 56 284.642L53.0446 254C40.9753 280.141 18.7053 330.115 20.059 340.29C21.3555 350.12 26.046 387.994 29.1539 412C32.1664 411.808 34.9693 411.384 37.2001 410.654Z" fill="#ACEAE7"/>
        <path d="M204.715 397L198.736 406.963C198.736 406.963 193.509 411.839 193.066 421.108C192.622 430.378 186.103 437.778 190.539 439.724C194.975 441.671 200.067 435.639 200.935 431.168C200.935 431.168 209.961 445.178 211.022 450.651C212.083 456.124 204.619 467.436 208.727 467.956C212.854 468.477 218.371 464.314 219.701 456.548C219.701 456.548 226.008 456.721 227.86 450.786C229.692 444.831 234.707 443 233.916 435.908C233.125 428.817 230.271 407.618 230.271 407.618L204.715 397Z" fill="#FFBD6E"/>
        <path d="M201 431C201 431 208.158 438.055 211.276 443.501C214.414 448.967 212.554 460.596 211.276 464.298C210.863 465.5 209.811 466.798 208.59 468C204.57 467.477 211.84 456.1 210.826 450.595C209.792 445.091 201 431 201 431Z" fill="#F7A952"/>
        <path d="M200.362 431C200.286 431.328 200.153 431.657 200 432L200.362 431Z" fill="#F7A952"/>
        <path d="M198.86 406.94L204.901 397L208 398.269L207.084 408.305C207.084 408.305 200.341 415.207 198.49 421.051C196.638 426.896 196.385 431.875 194.787 437.643C194.612 438.296 194.495 438.931 194.417 439.565C193.15 440.084 191.825 440.181 190.558 439.623C186.076 437.681 192.643 430.299 193.111 421.051C193.579 411.823 198.86 406.94 198.86 406.94Z" fill="#F7A952"/>
        <path d="M189.489 196C189.489 196 229.785 322.282 230.074 334.541C230.363 346.781 231 407.039 231 407.039C231 407.039 209.492 409.576 199.462 406.405C199.462 406.405 196.125 340.229 195.469 334.541C194.813 328.853 174 284.505 174 284.505L179.324 229.799L189.489 196Z" fill="#DCFFFE"/>
        <path d="M199.168 406.654C199.168 406.654 195.87 340.415 195.221 334.722C194.573 329.029 174 284.638 174 284.638L176.955 254C189.025 280.138 211.295 330.106 209.941 340.28C208.644 350.108 210.322 383.997 207.214 408C204.202 407.808 201.399 407.385 199.168 406.654Z" fill="#ACEAE7"/>
        <path d="M105.629 167.46C105.629 167.46 64.2787 171.935 40 196.482C40 196.482 48.3048 260.095 47.2258 307.555C46.4743 340.879 40 380.215 40 380.215C40 380.215 145.651 394.063 196 378.909C196 378.909 186.077 339.131 185.287 292.555C184.477 245.978 188.697 196.482 188.697 196.482C188.697 196.482 158.908 162.697 105.629 167.46Z" fill="#DCFFFE"/>
        <path d="M152.52 229.773C158.32 211.299 163.198 190.274 153.404 172.223C144.954 156.665 128.322 150.91 111.594 155.572C94.9436 160.214 79.0417 172.031 75.8921 189.775C72.2047 210.57 80.5205 233.341 90.3343 251.335C90.5072 251.642 90.7184 251.853 90.9489 252.026C86.5701 256.534 84.7264 263.42 84.9377 269.713C85.3218 281.664 91.0833 292.675 96.576 302.996C97.7859 305.279 101.224 303.264 100.033 300.982C95.9806 293.116 91.7939 285.059 89.9694 276.312C88.0873 267.276 89.1052 252.985 100.84 251.546C111.018 250.28 118.066 260.447 120.947 268.83C123.866 277.386 124.558 286.728 125.787 295.629C126.152 298.277 130.185 297.145 129.82 294.517C128.188 282.738 127.573 269.713 121.101 259.354C116.28 251.642 107.12 244.985 97.6323 247.92C96.2879 248.342 95.078 248.918 93.9641 249.608C93.9257 249.493 93.9257 249.397 93.8681 249.282C85.6867 233.993 79.0417 216.076 79.2722 198.523C79.3874 189.411 81.8649 180.337 88.3562 173.661C94.4058 167.446 102.856 162.689 111.095 160.08C119.757 157.336 129.244 157.01 137.406 161.403C144.896 165.432 150.081 173.048 152.674 180.99C158.743 199.674 151.426 219.318 145.799 237.139C139.749 256.265 135.62 277.559 140.901 297.413C141.42 299.37 144.8 299.063 144.57 296.915C143.321 285.213 142.169 273.952 143.859 262.193C145.453 251.086 149.16 240.458 152.52 229.773Z" fill="#295891"/>
        <path d="M103.9 161.357C103.9 161.357 90.3087 160.994 90.0024 173.486C89.6962 186.111 118.429 200 118.429 200C118.429 200 145.267 183.012 141.668 171.726C136.155 154.47 103.9 161.357 103.9 161.357Z" fill="#ACEAE7"/>
        <path d="M116.99 182C114.172 182 111.586 181.115 109.463 179.595C106.162 177.248 104 173.399 104 169.032V145H130V169.032C130 174.207 126.95 178.691 122.549 180.749C120.851 181.557 118.978 182 116.99 182Z" fill="#E89746"/>
        <path d="M159.701 26.2304C159.701 26.2304 147.961 -7.46335 120.28 1.52421C92.5798 10.5118 83.4488 -6.88475 66.1075 15.4684C44.4117 43.4533 41.2082 43.1061 39.4242 60.4448C37.6402 77.7642 40.9204 102.817 60.18 110.031C79.4396 117.244 150.876 109.047 150.876 109.047L180.418 106.713C180.418 106.713 204.78 84.8038 192.58 64.9193C185.482 53.3473 188.782 37.8216 180.149 31.5149C170.289 24.2824 159.701 26.2304 159.701 26.2304Z" fill="#E03636"/>
        <path d="M192.58 65.0978C189.28 59.7539 188.225 53.5449 187.19 47.8165C183.046 62.0221 186.058 68.7693 186.058 68.7693C179.612 59.0618 167.393 58.7158 167.393 58.7158C173.666 64.1366 175.546 71.3836 175.546 71.3836C157.936 77.6694 146.196 58.7158 146.196 58.7158C128.663 74.3631 93.3855 64.5403 93.3855 64.5403C101.538 59.7923 108.003 48.5662 108.003 48.5662C92.0427 58.2737 67.8531 56.3899 67.8531 56.3899C72.1693 47.7012 77.598 38.6089 77.598 38.6089C61.8489 40.9732 50.4351 52.7568 50.4351 52.7568C49.898 42.0113 60.7555 23.3076 60.7555 23.3076L60.4294 23C43.817 43.799 41.0355 44.9908 39.4242 60.6189C37.6402 77.8809 40.9204 102.851 60.18 110.041C79.4396 117.23 150.876 109.06 150.876 109.06L180.418 106.734C180.418 106.734 204.78 84.8972 192.58 65.0978Z" fill="#BA2424"/>
        <path d="M180.562 97.8059C177.618 95.7749 174.791 96.684 172.367 98.6376C172.367 98.3668 172.386 98.0766 172.386 97.8059C172.386 92.3321 171.848 87.0324 170.847 81.9261C151.169 81.4425 146.033 58 146.033 58C123.335 78.077 85.2479 71.3653 69.7053 67.4776C65.9735 76.5877 63.8576 86.8776 63.8576 97.8059C63.8576 98.154 63.8768 98.4828 63.8768 98.831C61.3954 96.742 58.4716 95.6976 55.4323 97.8059C47.3917 103.376 47.6802 125.368 60.3374 130.262C64.627 131.925 67.9356 131.364 70.4555 129.933C79.6502 150.822 97.5588 165 118.122 165C138.647 165 156.517 150.88 165.731 130.049C168.231 131.403 171.463 131.886 175.656 130.262C188.333 125.388 188.602 103.376 180.562 97.8059Z" fill="#FFBD6E"/>
        <path d="M73.2634 133.667C69.1147 117.149 68.1822 89.6581 82.284 77.2793C86.3566 73.6985 91.3427 72.8129 96.5762 72.6011C98.4032 72.5241 100.211 72.4086 102 72.2546C88.8497 72.2546 76.708 69.8097 69.4953 68C65.8033 77.0675 63.7099 87.3094 63.7099 98.1865C63.7099 98.5331 63.7289 98.8604 63.7289 99.2069C61.274 97.1277 58.3813 96.0881 55.3744 98.1865C47.4195 103.731 47.705 125.62 60.2273 130.491C64.4711 132.146 67.7445 131.588 70.2375 130.163C71.6077 133.282 73.1682 136.209 74.9001 139C74.272 137.229 73.7011 135.438 73.2634 133.667Z" fill="#F7A952"/>
        <path d="M180.523 97.9362C177.559 95.9094 174.711 96.8166 172.271 98.7662C172.271 98.496 172.29 98.2064 172.29 97.9362C172.29 92.4735 171.747 87.1845 170.74 82.0885C166.44 81.9727 162.817 80.7952 159.795 79C159.989 79.3282 160.182 79.6563 160.376 80.0038C167.602 93.4772 166.788 107.433 163.127 121.833C160.686 131.465 156.289 142.256 151 151C156.947 145.344 161.945 138.26 165.587 130.095C168.106 131.446 171.36 131.929 175.583 130.307C188.349 125.462 188.621 103.495 180.523 97.9362Z" fill="#F7A952"/>
        <path d="M96 106.5C96 110.089 93.089 113 89.5 113C85.911 113 83 110.089 83 106.5C83 102.911 85.911 100 89.5 100C93.089 100 96 102.911 96 106.5Z" fill="#302B26"/>
        <path d="M94 105C94 106.097 93.1183 107 92 107C90.9032 107 90 106.118 90 105C90 103.903 90.8817 103 92 103C93.1183 103 94 103.903 94 105Z" fill="white"/>
        <path d="M154 106.5C154 110.089 151.089 113 147.5 113C143.911 113 141 110.089 141 106.5C141 102.911 143.911 100 147.5 100C151.089 100 154 102.911 154 106.5Z" fill="#302B26"/>
        <path d="M152 105C152 106.097 151.118 107 150 107C148.903 107 148 106.118 148 105C148 103.903 148.882 103 150 103C151.097 103 152 103.903 152 105Z" fill="white"/>
        <path d="M79 97C79 97 80.0951 90.7704 84.29 88.4268C88.4664 86.0832 95 94.1556 95 94.1556C95 94.1556 84.2343 90.4699 79 97Z" fill="#E03636"/>
        <path d="M156 97C156 97 154.905 90.7704 150.71 88.4268C146.534 86.0832 140 94.1556 140 94.1556C140 94.1556 150.766 90.4699 156 97Z" fill="#E03636"/>
        <path d="M176.837 33.2013C173.436 31.0675 168.824 30.2258 165.071 31.8506C164.935 31.9093 165.013 32.1246 165.15 32.1246C169.371 32.0659 173.417 32.2421 176.896 35.0218C180.14 37.6449 180.629 42.069 182.192 45.7687C182.407 46.2581 183.072 45.8862 182.994 45.4359C182.114 40.7574 181.117 35.8831 176.837 33.2013Z" fill="#FF5555"/>
        <path d="M144.941 10.5782C141.378 6.35948 136.852 3.04052 131.246 3.00053C124.12 2.94055 118.014 7.95898 111.137 9.05863C110.945 9.07863 110.964 9.39853 111.137 9.43851C122.617 11.8378 134.829 -0.438388 144.614 10.918C144.807 11.158 145.134 10.8181 144.941 10.5782Z" fill="#FF5555"/>
        <path d="M87.7096 7.00002C75.9582 6.98054 67.1881 19.3158 62.0384 28.5917C61.8835 28.8645 62.232 29.1373 62.4643 28.923C70.4019 21.7322 75.8226 8.44207 87.7096 7.60412C88.0968 7.58464 88.0968 7.00002 87.7096 7.00002Z" fill="#FF5555"/>
        <path d="M117.628 124.697C109.56 123.867 112.498 117.58 113.457 112.388C114.045 109.16 113.81 106.253 113.203 103.062C113.183 102.968 113.026 102.987 113.046 103.081C113.496 107.763 111.93 111.331 110.265 115.56C109.365 117.844 108.483 120.28 109.365 122.696C110.579 126 114.71 126.698 117.824 125.358C118.176 125.207 117.941 124.735 117.628 124.697Z" fill="#F7A952"/>
        <path d="M95 128.781C95 128.781 124.276 137.707 139 127C139 127 138.2 158.154 116.41 157.999C98.8476 157.864 95 128.781 95 128.781Z" fill="#543E3E"/>
        <path d="M136 143.594C130.547 141.947 124.307 141 117.683 141C111.309 141 105.299 141.89 100 143.424C103.226 150.297 108.544 156.943 117.088 156.999C127.245 157.075 132.87 150.581 136 143.594Z" fill="#D84A4A"/>
        <path d="M98 129.773L99.0332 134.29C99.1863 134.964 99.5116 135.518 99.9517 135.895C100.143 136.073 100.373 136.192 100.602 136.291C104.716 137.777 118.55 141.819 133.857 135.796C134.374 135.598 134.814 135.162 135.101 134.607C135.273 134.25 135.407 133.854 135.464 133.438L136 129C123.831 135.221 105.29 131.595 98 129.773Z" fill="white"/>
        <path d="M100.416 130.464C99.5228 130.309 98.6904 130.138 98 130L99.0964 133.92C99.2589 134.504 99.6041 134.986 100.071 135.312C100.274 135.467 100.518 135.57 100.761 135.656C101.107 135.759 101.533 135.88 102 136C101.289 134.264 100.761 132.407 100.416 130.464Z" fill="#D1D1D1"/>
        <path d="M134.273 129.827C134.012 132 133.576 134.077 133 136C133.349 135.865 133.698 135.75 134.047 135.596C134.517 135.404 134.919 134.981 135.18 134.442C135.337 134.096 135.459 133.712 135.512 133.308L136 129C135.424 129.327 134.849 129.577 134.273 129.827Z" fill="#D1D1D1"/>
        <path opacity="0.2" d="M92.9999 121.54C92.9804 124.02 90.072 126.02 86.4804 126C82.8889 125.98 80 123.96 80 121.46C80.0195 118.98 82.9279 116.98 86.5195 117C90.111 117.02 93.0194 119.06 92.9999 121.54Z" fill="#ED245E"/>
        <path opacity="0.2" d="M157 121.54C156.98 124.02 154.072 126.02 150.48 126C146.889 125.98 144 123.96 144 121.46C144.02 118.98 146.928 116.98 150.519 117C154.111 117.02 157.019 119.06 157 121.54Z" fill="#ED245E"/>
        <path d="M56.1684 105C56.0073 105 55.9267 105.232 56.0878 105.31C59.5516 106.839 61.6259 110.362 62.6932 114.194C62.6529 114.194 62.6127 114.194 62.5523 114.214C60.5988 114.93 59.3704 116.285 59.1489 118.298C59.1086 118.569 59.5919 118.704 59.7127 118.453C60.337 117.156 61.5252 116.033 62.955 115.569C62.9752 115.569 62.9953 115.549 63.0154 115.53C63.5592 118.085 63.7001 120.679 63.539 122.847C63.5189 123.001 63.7606 123.06 63.8411 122.924C66.8417 117.543 63.9217 105 56.1684 105Z" fill="#E89746"/>
        <path d="M177.529 106.042C174.689 107.86 172.549 110.112 170.908 113.036C170.128 114.42 169.508 115.862 169.168 117.403C168.748 119.34 169.228 120.644 169.388 122.6C169.428 123.133 170.208 123.133 170.228 122.6C170.308 120.624 171.008 118.134 171.749 115.981C172.409 116.06 173.089 115.981 173.709 116.376C174.469 116.85 175.369 117.581 175.949 118.253C176.029 118.352 176.189 118.233 176.169 118.134C176.029 117.482 176.009 117.186 175.649 116.613C175.329 116.099 174.929 115.704 174.429 115.348C173.789 114.874 173.189 114.341 172.489 114.044C173.629 111.159 175.609 108.591 177.929 106.516C178.15 106.299 177.809 105.864 177.529 106.042Z" fill="#E89746"/>
        <path d="M47.1327 307.327C46.3909 340.727 40 380.152 40 380.152C40 380.152 46.2198 380.98 56.3197 382C69.2918 316.876 43.8041 232 43.8041 232C45.7823 254.138 47.6843 282.86 47.1327 307.327Z" fill="#ACEAE7"/>
        <path d="M177.442 383C184.16 381.98 190.411 380.651 196 378.995C196 378.995 186.03 341.973 185.212 295.285C184.822 272.664 185.601 248.713 186.517 230C172.983 268.64 175.748 350.945 177.442 383Z" fill="#ACEAE7"/>
        <path d="M151 300.5C151 304.644 147.644 308 143.5 308C139.356 308 136 304.644 136 300.5C136 296.356 139.356 293 143.5 293C147.644 293 151 296.356 151 300.5Z" fill="#343F4C"/>
        <path d="M148 300C148 302.761 145.761 305 143 305C140.239 305 138 302.761 138 300C138 297.239 140.239 295 143 295C145.761 295 148 297.239 148 300Z" fill="#505E6D"/>
        <path d="M102 301.5C102 303.991 101.103 306 100 306C98.8966 306 98 303.991 98 301.5C98 299.009 98.8966 297 100 297C101.103 296.98 102 299.009 102 301.5Z" fill="#343F4C"/>
        <path d="M128.002 295.854C129.237 297.968 129.337 300.2 128.241 300.832C127.145 301.464 125.233 300.259 123.998 298.146C122.763 296.032 122.663 293.8 123.759 293.168C124.875 292.536 126.767 293.741 128.002 295.854Z" fill="#343F4C"/>
    </g>
    <defs>
        <clipPath id="clip0_27_7597">
            <rect width="234" height="679" fill="white"/>
        </clipPath>
    </defs>
</svg>
