<svg width="305" height="696" viewBox="0 0 305 696" fill="none" xmlns="http://www.w3.org/2000/svg">
<g clip-path="url(#clip0_27_7522)">
<path d="M52.6782 251.939C52.6782 251.939 53.6043 231.656 48.39 224.727C43.1757 217.778 43.9005 202 39.5117 202C35.1228 202 29.6267 210.263 30.3515 216.788C30.6333 219.212 30.9756 221.677 31.2172 224C26.627 220.404 17.346 214.182 10.9641 216.788C2.1864 220.363 3.23328 229.131 1.5623 237.676C-0.108683 246.222 -1.7394 252.888 4.0587 259.595C8.28648 264.464 18.413 269.616 23.6273 272.06C24.3319 273.717 25.3587 275.333 26.8686 276.868C36.2301 286.484 56 270.888 56 270.888L52.6782 251.939Z" fill="#FFBD6E"/>
<path d="M40.6677 279.163C35.7379 280.531 30.6457 280.511 27.0751 276.888C25.5535 275.339 24.5391 273.728 23.8088 272.098C18.5543 269.663 8.34967 264.53 4.08929 259.679C-0.739146 254.184 -0.45512 248.69 0.741845 242.148C1.4722 248.71 2.7706 254.345 4.96165 256.479C11.5957 262.88 15.8358 265.899 19.1629 265.214C22.4901 264.53 23.403 259.277 21.1917 257.606C18.9803 255.936 10.8653 252.675 8.4714 249.092C8.4714 249.092 19.0006 256.076 22.4089 255.09C25.8173 254.104 27.846 249.716 25.6347 248.247C23.4233 246.778 15.3083 244.725 13.097 241.182C13.097 241.182 23.7479 247.804 27.0954 245.55C30.4428 243.295 29.8748 238.002 25.4521 236.895C21.0294 235.788 14.5374 229.387 14.5374 229.387C14.5374 229.387 25.9998 236.512 30.6254 235.426C35.2307 234.319 33.3845 229.387 33.3845 229.387C33.3845 229.387 36.3262 234.5 35.7784 237.076C35.2307 239.632 30.808 245.167 30.808 249.092C30.808 252.997 31.6803 257.083 35.8596 257.606C40.0388 258.129 50 257.606 50 257.606L40.6677 279.163ZM37.442 203C33.6482 205.113 29.9965 211.655 30.6051 217.009C30.8891 219.424 31.234 221.88 31.4775 224.194L35.5958 226.348C35.5958 226.348 33.2019 216.385 34.6829 209.018C35.1292 206.623 36.2045 204.61 37.442 203Z" fill="#F7A952"/>
<path d="M162 252.459L128.387 229C128.387 229 80.7001 287.159 79.1972 289.578C77.6943 291.997 53.0586 251.91 53.0586 251.91C53.0586 251.91 26.7981 265.083 27.0012 276.975C27.0012 276.975 57.7501 339.037 72.3934 341.883C87.0368 344.729 157.248 294.762 157.248 294.762L162 252.459Z" fill="#C94B24"/>
<path d="M159 278.441L135.295 279.029C135.295 279.029 78.9564 325.552 72.3605 323.687C66.8605 322.127 41.3902 279.941 33.0896 266C29.5176 269.546 26.9402 273.436 27.0011 277.185C27.0011 277.185 57.7277 339.067 72.3605 341.883C86.9932 344.72 157.153 294.915 157.153 294.915L159 278.441Z" fill="#BA3F1E"/>
<path d="M204.02 246.605C206.876 244.557 241.494 226 241.494 226C241.494 226 307.671 296.821 304.916 311.626C302.161 326.431 263.898 395 263.898 395L236.228 379.729C236.228 379.729 266.936 322.03 261.609 316.209C256.281 310.388 216.478 273.396 216.478 273.396L204 248.735" fill="#C94B24"/>
<path d="M168.932 209L158.627 212.747L127.934 229.477C127.934 229.477 113.458 332.047 113.458 395.687C113.458 459.327 112 597.078 112 597.078L162.656 601.494C162.656 601.494 169.479 511.664 173.407 475.591L191.365 602L241.778 596.288C241.778 596.288 248.054 453.655 239.51 379.463C230.966 305.27 236.069 249.529 241.494 226.601L199.848 212.909L168.932 209Z" fill="#EF6B29"/>
<path d="M237.004 256C234.261 284.868 233.615 327.39 239.526 378.773C248.04 452.874 241.786 595.33 241.786 595.33L232.082 596.442C232.505 567.17 232.364 498.228 223.709 432.867C212.331 346.911 237.004 256 237.004 256ZM151 597.474L166.01 598C166.01 598 169.742 510.831 173.656 474.802L167.543 442.698C167.543 442.698 152.695 535.916 151 597.474Z" fill="#E5542C"/>
<path d="M179.49 215C176.563 215 173.878 214.067 171.673 212.465C168.245 209.991 166 205.934 166 201.331V176H193V201.331C193 206.786 189.833 211.512 185.263 213.682C183.499 214.534 181.555 215 179.49 215Z" fill="#E89746"/>
<path d="M114.955 84.0134C114.955 84.0134 110.895 118.384 119.52 135.671C128.145 152.958 148.748 112.886 148.748 112.886L150 84.1356L131.861 72L114.955 84.0134Z" fill="#683A33"/>
<path d="M250.232 91.3138C250.232 91.3138 255.736 120.883 237.277 147.828C218.818 174.793 210 126.393 210 126.393L213.475 97.9743L229.142 81L250.232 91.3138Z" fill="#683A33"/>
<path d="M235.901 131.035C234.006 129.327 231.969 129.063 229.993 129.612C230.215 128.249 230.416 126.907 230.598 125.545C235.296 86.8323 212.491 63.3688 181.317 59.5259C150.144 55.6831 122.398 72.8843 117.68 111.597C112.981 150.31 133.085 195.875 164.279 199.738C184.826 202.279 205.05 186.054 217.794 163.628C220.052 164.766 222.956 165.234 226.686 164.299C240.478 160.801 243.563 137.887 235.901 131.035Z" fill="#FFBD6E"/>
<path d="M235.893 131.632C233.994 129.924 231.953 129.66 229.973 130.209C230.196 128.846 230.398 127.504 230.58 126.142C234.459 94.2982 219.69 72.7845 196.941 64C197.708 65.3421 198.476 66.6841 199.284 67.9855C205.002 77.2987 208.133 88.808 210.901 99.3208C220.033 134.113 208.356 177.425 179 199C194.132 194.567 208.093 181.167 217.75 164.188C220.013 165.326 222.922 165.794 226.66 164.859C240.479 161.402 243.57 138.485 235.893 131.632Z" fill="#F7A952"/>
<path d="M227.293 99C227.293 99 227.457 127.333 226 133C226 133 227.54 129.852 230.003 129.628L237.393 120.042L240 99.0406L227.293 99Z" fill="#683A33"/>
<path d="M110 75.209C110 75.209 121.944 -0.665251 181.986 0.00440681C249.862 0.775528 260.855 53.9829 257.454 94L110 75.209Z" fill="#EF6B29"/>
<path d="M229.302 43.3331C226.713 61.9456 215.586 75.8394 201 85.9623L256.452 93C258.96 63.7806 253.66 27.5034 223.759 10C229.1 19.6188 231.022 31.0323 229.302 43.3331Z" fill="#E5542C"/>
<path d="M141.951 124.288C141.512 127.857 138.282 130.389 134.712 129.951C131.143 129.512 128.611 126.282 129.049 122.712C129.488 119.143 132.718 116.611 136.288 117.049C139.857 117.488 142.389 120.718 141.951 124.288Z" fill="#302B26"/>
<path d="M139.986 123.237C139.856 124.338 138.863 125.115 137.763 124.986C136.662 124.856 135.885 123.863 136.014 122.763C136.144 121.662 137.137 120.885 138.237 121.014C139.338 121.144 140.115 122.158 139.986 123.237Z" fill="white"/>
<path d="M202.955 132.288C202.516 135.857 199.285 138.389 195.714 137.951C192.144 137.512 189.611 134.282 190.049 130.712C190.488 127.143 193.72 124.611 197.29 125.049C200.84 125.488 203.374 128.718 202.955 132.288Z" fill="#302B26"/>
<path d="M200.986 131.237C200.856 132.338 199.863 133.115 198.763 132.986C197.662 132.856 196.885 131.863 197.014 130.763C197.144 129.662 198.137 128.885 199.237 129.014C200.338 129.144 201.115 130.158 200.986 131.237Z" fill="white"/>
<path d="M266.128 84.0084C264.807 83.8559 264.551 85.82 265.872 85.9916C267.193 86.1442 267.449 84.161 266.128 84.0084Z" fill="#F7A952"/>
<path d="M95.2963 66.0318L267.783 85.5365C269.438 85.7195 270.75 86.7161 271.437 88.0381C272.143 89.3601 272.224 91.0075 271.457 92.4923L263.706 107.441C263.241 108.316 262.535 109.007 261.707 109.455C260.88 109.902 259.911 110.085 258.922 109.963L100.888 90.7838C99.9592 90.6618 99.1114 90.2957 98.4251 89.7059C97.8801 89.2381 97.4158 88.6483 97.113 87.9568L90.4114 72.7028C89.4424 70.4859 90.2701 68.1063 92.006 66.8657C92.9144 66.2352 94.065 65.8894 95.2963 66.0318Z" fill="#C94B24"/>
<path d="M271.431 87.9753C270.721 86.6494 269.424 85.6499 267.761 85.4663L210.45 79C202.906 90.8719 188.325 96.8283 172 99.4393L258.878 109.965C259.872 110.087 260.825 109.883 261.677 109.455C262.508 109.006 263.218 108.313 263.684 107.435L271.472 92.463C272.222 90.9535 272.141 89.3012 271.431 87.9753Z" fill="#BA3F1E"/>
<path d="M253.583 52.1413L123.33 36C118.499 44.5309 115.183 53.1641 113 60.1403L257 78C256.798 69.3872 255.767 60.5904 253.583 52.1413Z" fill="#F4CE0F"/>
<path d="M257 78C257 77.9591 257 77.9386 257 77.8977C256.94 75.7897 256.84 73.6613 256.701 71.5328C256.701 71.5124 256.701 71.5124 256.701 71.4919C256.382 67.1736 255.843 62.8349 255.046 58.5575C255.046 58.537 255.026 58.4961 255.026 58.4757C254.647 56.4086 254.188 54.362 253.67 52.3359C253.65 52.2745 253.63 52.2131 253.61 52.1313L228.765 49C226.671 58.1482 222.543 66.1094 217 72.9654L257 78Z" fill="#F2A011"/>
<path d="M172.07 71.3303C181.984 67.1223 186.635 55.6634 182.46 45.7363C178.285 35.8091 166.863 31.1727 156.95 35.3807C147.036 39.5887 142.385 51.0476 146.56 60.9748C150.736 70.902 162.157 75.5383 172.07 71.3303Z" fill="#DCEFF4"/>
<path d="M165 70C173.837 70 181 62.8366 181 54C181 45.1634 173.837 38 165 38C156.163 38 149 45.1634 149 54C149 62.8366 156.163 70 165 70Z" fill="#48B2F9"/>
<path d="M165.317 62.8369C156.81 61.8048 150.717 54.3577 151.289 46C150.165 47.8415 149.408 49.9461 149.122 52.2127C148.038 60.9144 154.295 68.827 163.088 69.8793C171.88 70.9518 179.875 64.7594 180.939 56.0576C180.98 55.7743 180.98 55.491 181 55.2279C177.871 60.449 171.819 63.6261 165.317 62.8369Z" fill="#2495D3"/>
<path d="M151.121 52.8399C152.183 44.2511 160.017 38.1591 168.612 39.1978C170.175 39.3775 171.638 39.797 173 40.3962C171.117 39.2177 168.953 38.4188 166.609 38.1192C157.993 37.0606 150.159 43.1725 149.117 51.7613C148.256 58.7921 152.223 65.3035 158.414 68C153.385 64.8841 150.359 59.0717 151.121 52.8399Z" fill="#B0CFD6"/>
<path d="M172.982 46.7721C172.727 48.9341 169.839 50.3549 166.538 49.9225C163.238 49.4901 160.763 47.3898 161.018 45.2279C161.273 43.0659 164.161 41.6451 167.462 42.0775C170.762 42.5099 173.237 44.6102 172.982 46.7721Z" fill="#4BD2F7"/>
<path d="M152.831 144.033C154.568 143.215 156.325 142.336 157.523 140.779C160.159 137.364 160.419 132.193 159.56 128.18C159.52 127.96 159.121 127.92 159.121 128.18C159.041 130.756 158.901 133.431 157.903 135.847C156.545 139.121 153.949 140.22 150.993 141.577C148.837 142.576 146.281 143.634 145.362 146.05C143.165 151.82 151.533 153.058 155.267 152.998C155.427 152.998 155.407 152.778 155.307 152.718C154.308 152.239 149.755 150.482 149.516 149.724C148.757 147.368 151.033 144.872 152.831 144.033Z" fill="#F7A952"/>
<path d="M232.735 138.006C225.323 139.396 220.835 147.895 220.012 154.582C219.806 156.253 222.4 156.556 222.667 154.904C222.935 153.172 223.388 151.4 223.985 149.667C224.356 149.768 224.747 149.889 225.097 150.05C226.167 150.534 226.62 151.238 227.094 152.266C227.238 152.588 227.753 152.447 227.691 152.104C227.423 150.513 226.291 148.6 224.747 147.694C226.435 143.847 229.091 140.383 232.879 138.469C233.085 138.349 233.023 137.946 232.735 138.006Z" fill="#E89746"/>
<path d="M146.981 109.187C145.619 105.235 141.984 103.058 137.545 103.001C132.258 102.944 128.769 105.979 126.022 109.798C125.94 109.913 126.105 110.065 126.208 109.97C131.784 104.929 140.849 104.013 146.507 109.454C146.734 109.664 147.085 109.474 146.981 109.187Z" fill="#683A33"/>
<path d="M186.027 114.911C185.886 115.291 186.33 115.631 186.673 115.391C193.396 110.314 203.107 115.591 207.811 120.967C207.892 121.047 208.033 120.967 207.993 120.867C205.429 113.452 190.307 104.098 186.027 114.911Z" fill="#683A33"/>
<path d="M138 158C138 158 164.592 166.049 186 161.398C186 161.398 178.284 180.873 159.165 177.637C142.942 174.867 138 158 138 158Z" fill="#543E3E"/>
<path d="M158.413 177.634C168.046 179.29 174.734 175.049 179 170.485C164.441 169.111 154.468 170.868 148 173.11C150.784 175.21 154.208 176.907 158.413 177.634Z" fill="#D84A4A"/>
<path d="M178.567 168.697C179.589 168.59 180.487 167.972 180.998 167.035C181.59 165.948 182.367 164.264 183 162.133C166.821 164.903 148.558 160.961 141 159C141.368 161.387 141.981 164.328 142.736 164.754C143.982 165.479 163.9 170.231 178.567 168.697Z" fill="white"/>
<path d="M144.07 159.68C142.924 159.44 141.886 159.22 141 159C141.389 161.24 142.038 164 142.838 164.4C143.054 164.52 143.832 164.72 145 165C144.524 163.18 144.243 161.26 144.07 159.68Z" fill="#D1D1D1"/>
<path d="M180.186 162.368C179.518 164.419 178.648 166.51 178 168C178.202 167.981 178.405 167.981 178.607 167.961C179.619 167.865 180.51 167.303 181.016 166.452C181.603 165.465 182.372 163.935 183 162C182.069 162.135 181.117 162.252 180.186 162.368Z" fill="#D1D1D1"/>
<path opacity="0.2" d="M203.981 147.225C203.706 149.689 200.588 151.338 197.02 150.941C193.431 150.544 190.745 148.219 191.019 145.775C191.294 143.311 194.412 141.662 197.98 142.059C201.569 142.456 204.255 144.761 203.981 147.225Z" fill="#ED245E"/>
<path opacity="0.2" d="M134.981 139.225C134.706 141.689 131.588 143.338 128.02 142.941C124.431 142.544 121.745 140.219 122.019 137.775C122.294 135.311 125.412 133.662 128.98 134.059C132.569 134.456 135.255 136.761 134.981 139.225Z" fill="#ED245E"/>
<path d="M180.412 3.00389C171.062 4.06084 162.214 5.74789 153.869 10.2806C145.102 15.0368 138.406 21.846 132.072 29.4683C131.831 29.7732 132.253 30.2 132.494 29.8951C143.614 16.5206 163.26 6.17474 180.412 4.22345C181.196 4.14214 181.196 2.92259 180.412 3.00389Z" fill="#FF8752"/>
<path d="M125.873 39.0241C122.643 43.8889 119.185 48.9911 118.004 54.7656C117.963 54.9633 118.232 55.1017 118.356 54.904C121.504 49.9601 123.347 44.2647 125.997 39.1032C126.018 39.0241 125.914 38.9648 125.873 39.0241Z" fill="#FFFF33"/>
<path d="M162.583 203.151C162.583 203.151 183.395 199.854 197.102 204.419L200 212.28C200 212.28 173.049 218.503 159 212.124L162.583 203.151Z" fill="#C94B24"/>
<path d="M170 598.149C170 598.149 138.382 593.361 109.995 595.593C107.415 595.796 107.719 660.665 107.719 660.665C107.719 660.665 78.9057 666.953 69.2943 690.442C69.0302 691.112 68.9489 691.781 69.0302 692.43C69.274 694.377 70.9199 696 73.0942 696L163.904 695.29C164.798 695.29 165.631 694.986 166.281 694.499C167.236 693.789 167.866 692.653 167.907 691.355L170 598.149Z" fill="#7A4A3F"/>
<path d="M188 598.149C188 598.149 219.618 593.361 248.005 595.593C250.585 595.796 250.281 660.665 250.281 660.665C250.281 660.665 279.094 666.953 288.706 690.442C288.97 691.111 289.051 691.781 288.97 692.43C288.726 694.377 287.08 696 284.906 696L194.096 695.29C193.202 695.29 192.369 694.986 191.719 694.499C190.764 693.789 190.134 692.653 190.093 691.355L188 598.149Z" fill="#7A4A3F"/>
<path d="M257.156 377.298C257.156 377.298 259.249 379.648 253.58 373.963C247.911 368.278 242.059 368.197 237.061 368.077C232.976 367.976 224.666 367.534 218.042 370.789C211.418 374.063 203.798 389.15 205.159 393.289C206.521 397.427 211.682 398.411 213.795 393.289C215.908 388.166 221.781 385.454 221.781 385.454C221.781 385.454 220.175 388.186 218.042 395.217C215.908 402.249 216.315 407.673 220.378 407.17C224.463 406.668 229.034 395.217 229.034 395.217C229.034 395.217 225.093 405.865 228.039 409.099C230.985 412.313 231.859 405.885 234.886 402.249C234.886 402.249 233.261 415.126 237.629 413.92C241.998 412.715 243.502 407.09 247.444 403.856C251.365 400.621 256.384 405.865 262.439 401.847C263.78 400.943 264.776 399.757 265.507 398.432C268.271 393.47 267.052 387.262 263.049 383.204L257.156 377.298Z" fill="#FFBD6E"/>
<path d="M221.692 385.765C221.794 385.564 221.875 385.443 221.875 385.443C221.814 385.524 221.733 385.664 221.692 385.765ZM247.596 392.613C247.596 392.613 247.231 392.111 241.689 392.613C236.147 393.115 232.452 399.782 231.274 403.799C230.584 406.169 229.123 407.996 227.803 408.639C227.904 408.799 227.986 408.96 228.107 409.081C231.051 412.294 231.924 405.867 234.949 402.232C237.243 395.746 247.596 392.613 247.596 392.613ZM213.877 393.276C215.988 388.155 221.855 385.443 221.855 385.443C223.317 382.23 227.113 380.001 227.113 380.001C227.113 380.001 223.418 379.881 219.906 382.25C216.394 384.62 210.669 392.292 209.756 394.661C209.329 395.726 207.685 395.404 206 394.742C207.949 397.553 212.05 397.714 213.877 393.276ZM247.474 403.839C251.392 400.606 256.407 405.847 262.456 401.831C263.796 400.927 264.791 399.742 265.522 398.417C268.08 393.818 267.186 388.155 263.857 384.138C263.431 390.765 261.096 398.115 254.356 397.493C245.444 396.67 242.237 404.341 239.841 408.819C237.446 413.278 234.766 409.462 234.746 409.442C234.969 412.153 235.72 414.463 237.689 413.92C242.034 412.695 243.556 407.072 247.474 403.839ZM232.269 386.809C228.757 388.998 224.149 400.867 221.571 404.682C220.657 406.048 219.236 406.43 217.835 406.169C218.424 406.912 219.297 407.273 220.474 407.133C223.317 406.791 226.423 401.068 228.006 397.674C228.331 396.931 228.574 396.449 228.595 396.388C228.92 395.645 229.102 395.183 229.102 395.183C229.102 395.183 229.001 395.465 228.859 395.926C229.447 394.862 231.071 392.01 232.838 389.48C235.05 386.307 238.522 386.427 238.522 386.427C238.522 386.427 235.781 384.62 232.269 386.809Z" fill="#F7A952"/>
<path d="M116.771 324.061C116.771 324.061 125.646 318.122 141 317L140.094 339.449C140.094 339.449 121.701 343.939 115 347L116.771 324.061Z" fill="#343F4C"/>
<path d="M234.638 324.757C234.638 324.757 215.211 315.863 194.102 317.122L193 339.647C193 339.647 222.561 342.186 236 351L234.638 324.757Z" fill="#343F4C"/>
<path d="M236 351L235.587 343.08C235.233 337.36 234.938 331.8 234.742 326.4L234.663 324.72C234.663 324.72 230.691 322.88 224.458 321C223.514 328.56 222.669 336.58 222 344.92C227.25 346.5 232.264 348.5 236 351Z" fill="#222933"/>
<path d="M264.79 252C267.259 255.989 294.347 299.933 293.72 310.362C293.052 321.277 264 384.115 264 384.115L265.984 391C273.961 376.561 302.547 324.193 304.915 311.496C306.575 302.647 283.536 273.769 264.79 252Z" fill="#BA3F1E"/>
<path d="M210.5 290C216.299 290 221 283.508 221 275.5C221 267.492 216.299 261 210.5 261C204.701 261 200 267.492 200 275.5C200 283.508 204.701 290 210.5 290Z" fill="#F4CE0F"/>
<path d="M211.836 281.161C207.036 278.097 203.569 272.721 202.421 267C200.903 269.536 200 272.741 200 276.251C200 284.407 204.862 291 210.872 291C214.708 291 218.072 288.281 220 284.183C217.067 283.717 214.297 282.723 211.836 281.161Z" fill="#F2A011"/>
<path d="M171.5 230C173.433 230 175 228.433 175 226.5C175 224.567 173.433 223 171.5 223C169.567 223 168 224.567 168 226.5C168 228.433 169.567 230 171.5 230Z" fill="#F4CE0F"/>
<path d="M167.5 263C169.433 263 171 261.433 171 259.5C171 257.567 169.433 256 167.5 256C165.567 256 164 257.567 164 259.5C164 261.433 165.567 263 167.5 263Z" fill="#F4CE0F"/>
<path d="M167 298.5C167 300.436 165.436 302 163.5 302C161.564 302 160 300.436 160 298.5C160 296.564 161.564 295 163.5 295C165.436 295 167 296.564 167 298.5Z" fill="#F4CE0F"/>
<path d="M161.5 339C163.433 339 165 337.433 165 335.5C165 333.567 163.433 332 161.5 332C159.567 332 158 333.567 158 335.5C158 337.433 159.567 339 161.5 339Z" fill="#F4CE0F"/>
<path d="M161.5 383C163.433 383 165 381.433 165 379.5C165 377.567 163.433 376 161.5 376C159.567 376 158 377.567 158 379.5C158 381.433 159.567 383 161.5 383Z" fill="#F4CE0F"/>
<path d="M113.608 503.982C113.608 503.982 151.748 499.437 171 509.9L169.095 541C169.095 541 143.824 532.319 113 535.206L113.608 503.982Z" fill="#F4CE0F"/>
<path d="M158.676 505C157.402 515.075 156.128 525.757 155 536.601C163.731 538.26 169.037 540 169.037 540V539.98C169.642 529.763 170.29 519.223 171 509.269C167.407 507.387 163.188 506.012 158.676 505Z" fill="#F2A011"/>
<path d="M178 509.97C178 509.97 211.761 495.15 244 505.928L243.371 538.101C243.371 538.101 211.051 534.467 182.365 541L178 509.97Z" fill="#F4CE0F"/>
<path d="M244 505.11C239.333 503.596 234.626 502.606 230 502C230.693 513.936 231.182 525.428 231.508 536.192C238.885 536.475 243.552 537 243.572 537C243.755 527.063 243.918 516.319 244 505.11Z" fill="#F2A011"/>
<path d="M70.4731 687C70.0666 687.818 69.6602 688.676 69.2944 689.534C69.0302 690.192 68.9489 690.85 69.0302 691.489C69.274 693.404 70.9202 695 73.0946 695L163.915 694.302C164.809 694.302 165.643 694.002 166.293 693.524C167.248 692.825 167.878 691.708 167.919 690.431L168 687H70.4731Z" fill="#EF6B29"/>
<path d="M190.081 691.116C190.102 692.46 190.732 693.654 191.707 694.422C192.378 694.955 193.191 695.253 194.085 695.253L284.905 696C287.06 696.021 288.726 694.294 288.97 692.246C289.051 691.564 288.97 690.86 288.706 690.156C288.279 689.069 287.811 688.024 287.303 687H190L190.081 691.116Z" fill="#EF6B29"/>
<path d="M250.409 660.676C250.409 660.676 250.713 595.791 248.141 595.588C242.936 595.183 237.61 595 232.385 595L232 596.603L234.896 661.975C234.896 661.975 256.546 673.215 269.264 695.878L284.919 696C287.066 696.02 288.727 694.377 288.97 692.429C289.051 691.78 288.97 691.11 288.707 690.441C279.127 666.966 250.409 660.676 250.409 660.676Z" fill="#683A33"/>
<path d="M288.698 690.156C288.276 689.069 287.815 688.024 287.313 687H264C265.926 689.751 267.752 692.694 269.437 695.872L284.946 696C287.073 696.021 288.718 694.294 288.959 692.246C289.059 691.585 288.979 690.86 288.698 690.156Z" fill="#E5542C"/>
<path d="M163.054 694.878C163.926 694.878 164.738 694.575 165.373 694.089C166.304 693.38 166.919 692.245 166.958 690.949L169 597.904C169 597.904 162.36 596.871 152.469 596L150.328 597.803C150.328 597.803 153.46 659.819 149 695L163.054 694.878Z" fill="#683A33"/>
<path d="M149.811 687C149.574 689.774 149.316 692.462 149 695L163.024 694.892C163.895 694.892 164.706 694.57 165.338 694.054C166.268 693.301 166.881 692.097 166.921 690.72L167 687.022H149.811V687Z" fill="#E5542C"/>
</g>
<defs>
<clipPath id="clip0_27_7522">
<rect width="305" height="696" fill="white"/>
</clipPath>
</defs>
</svg>
