<svg width="236" height="660" viewBox="0 0 236 660" fill="none" xmlns="http://www.w3.org/2000/svg">
<g clip-path="url(#clip0_27_7664)">
<path d="M187.615 539L196.405 560.199C196.405 560.199 198.471 610.58 199.598 627.411C199.598 627.411 229.987 637.257 235.847 655.425C236.26 656.724 235.809 658.004 234.851 658.889C234.119 659.567 233.086 660 231.94 660H159.537C158.428 660 157.414 659.661 156.607 659.077C155.498 658.268 154.785 657.025 154.822 655.613C154.991 648.647 155.217 635.054 154.71 627.11C153.996 616.096 149 562.665 149 562.665L187.615 539Z" fill="#343F4C"/>
<path d="M196 659C187.322 653.772 175.371 645.096 173.575 636.064C171.013 623.21 167.422 564.11 167.422 564.11L168.806 550L149 562.124C149 562.124 153.975 615.303 154.686 626.264C155.191 634.172 154.966 647.72 154.798 654.634C154.76 656.021 155.471 657.276 156.575 658.082C157.379 658.663 158.389 659 159.492 659H196Z" fill="#222933"/>
<path d="M46.7056 555.306L37.0388 622.772C37.0388 622.772 4.8346 639.984 0.0948357 656.636C-0.148709 657.496 0.0948357 658.318 0.619395 658.953C1.16269 659.589 2.00573 660 2.96118 660H81.2703C82.6004 660 83.7994 659.477 84.6237 658.673C85.4481 657.851 85.9351 656.729 85.8227 655.533C85.2232 648.506 86.16 635.649 88.0146 625.538C90.6 611.447 98 559.287 98 559.287C98 559.287 76.1746 529.011 64.1097 540.673C52.0449 552.335 48.092 555.736 48.092 555.736" fill="#343F4C"/>
<path d="M46.7056 555.306L37.0388 622.772C37.0388 622.772 4.8346 639.984 0.0948357 656.636C-0.148709 657.496 0.0948357 658.318 0.619395 658.953C1.16269 659.589 2.00573 660 2.96118 660H81.2703C82.6004 660 83.7994 659.477 84.6237 658.673C85.4481 657.851 85.9351 656.729 85.8227 655.533C85.2232 648.506 86.16 635.649 88.0146 625.538C90.6 611.447 98 559.287 98 559.287C98 559.287 76.1746 529.011 64.1097 540.673C52.0449 552.335 48.092 555.736 48.092 555.736" fill="#343F4C"/>
<path d="M64.3773 540.681C52.2657 552.342 48.2974 555.743 48.2974 555.743L46.8869 555.313L37.1825 622.775C37.1825 622.775 4.85336 639.986 0.0952037 656.636C-0.149286 657.496 0.0952037 658.318 0.621798 658.954C1.1672 659.589 2.01351 660 2.97267 660H21.1966C29.7161 637.351 50.1405 625.073 50.1405 625.073C50.968 618.533 61.1613 558.303 61.1613 558.303L76 539.092C71.8249 537.429 67.725 537.448 64.3773 540.681Z" fill="#222933"/>
<path d="M160.028 215.447L162.008 212.877L187.37 180C187.37 180 206.697 268.823 205.981 283.32C205.264 297.817 165.836 352 165.836 352L145 292.379L163.121 305.244L160.028 215.447Z" fill="#3575B5"/>
<path d="M173.089 215C173.089 215 191.932 275.99 187.254 284.529C182.557 293.068 166.192 323 166.192 323L142 268.878L156.501 219.673L173.089 215Z" fill="#1A6BAD"/>
<path d="M77.615 198.05L50.0652 185C50.0652 185 5.0778 276.991 10.4447 294.479C15.8115 311.968 78.0481 375 78.0481 375L93 342.788C93 342.788 47.2594 293.332 50.0652 284.814C53.7184 273.701 84.5072 228.645 84.5072 228.645L77.615 198.05Z" fill="#3575B5"/>
<path d="M85 359.857C65.9058 341.145 28.4512 304.153 19.0076 292.505C13.5333 285.741 17.6907 264.887 24.2373 243C15.3392 265.132 8.09661 286.925 10.4481 294.553C15.8095 312.025 77.9831 375 77.9831 375L85 359.857Z" fill="#1A6BAD"/>
<path d="M46 340.78L68.3585 314L98 347.899L78.1887 375L46 340.78Z" fill="#343F4C"/>
<path d="M55.0375 330L46 340.869C46 340.869 46 340.869 46.0188 340.887L77.9875 375L85 359.818C77.0688 352.001 65.9688 341.019 55.0375 330Z" fill="#222933"/>
<path d="M83.908 324L72.426 329.993C72.426 329.993 47.5638 519.277 47 555.777C47 555.777 79.3791 564.343 98.4721 559.703L126.153 443.552C126.153 443.552 149.324 552.64 149.549 562.991C149.549 562.991 174.825 568.889 197 560.473C197 560.473 191.362 409.493 174.261 327.832L83.908 324Z" fill="#295891"/>
<path d="M149.496 562.009C149.327 554.099 135.801 488.683 129.395 458.154L128.287 440.569L134.035 399.914C134.035 399.914 165.257 493.53 168 564C157.273 563.831 149.496 562.009 149.496 562.009ZM72.4173 328.993C72.4173 328.993 47.5636 518.291 47 554.794C47 554.794 52.9551 556.372 61.2585 557.8C76.0242 481.901 93.0067 326.476 93.0067 326.476L92.537 323.376L83.8767 323L72.4173 328.993Z" fill="#1F4A75"/>
<path d="M78.0997 303L72.6777 314.198L72 330.101C72 330.101 139.379 347.084 174 327.758V312.803L78.0997 303Z" fill="#343F4C"/>
<path d="M72.6798 314.168L72 330.03C72 330.03 80.3657 332.126 92.697 334L94 317.062L83.236 303.519L78.1185 303L72.6798 314.168Z" fill="#222933"/>
<path d="M106.195 158L50 185.591C50 185.591 74.6838 245.513 72.8082 314.032C72.8082 314.032 139.676 326.095 173.757 312.627C173.757 312.627 192.551 217.566 186.961 180.215L144.815 161.372L106.195 158Z" fill="#295891"/>
<path d="M126.908 177.374L108.833 200L91 165.136C91 165.136 98.5017 156.99 112.202 154.393C125.902 151.796 150.12 162.931 150.12 162.931L152 197.683L126.908 177.374Z" fill="#3575B5"/>
<path d="M122.491 179C119.781 179 117.294 178.139 115.252 176.66C112.079 174.376 110 170.632 110 166.382V143H135V166.382C135 171.418 132.068 175.78 127.836 177.783C126.203 178.569 124.402 179 122.491 179Z" fill="#E89746"/>
<path d="M127.808 35.1205C103.37 37.3088 85.4783 69.1719 82.2048 100.658C79.2511 97.96 75.6013 96.2056 72.1962 99.0354C64.8402 105.148 67.0225 126.503 79.7967 130.144C81.377 130.597 82.788 130.766 84.0673 130.729C91.2916 157.781 113.773 167.987 139.453 165.686C168.651 163.063 190.908 145.293 187.69 109.241C184.492 73.1713 157.006 32.4982 127.808 35.1205Z" fill="#FFBD6E"/>
<path d="M120.734 154.747C106.323 144.05 99.8831 127.433 96.5418 110.329C93.0885 92.7187 92.6219 73.3852 97.9792 56C89.4859 68.2895 83.8113 84.7568 82.094 101.112C79.1634 98.4326 75.5421 96.6903 72.1634 99.5005C64.8648 105.57 67.0301 126.777 79.7047 130.393C81.2727 130.843 82.6727 131.011 83.942 130.974C91.1099 157.838 113.416 167.973 138.896 165.688C140.968 165.501 143.003 165.22 145 164.882C136.376 163.402 128.07 160.199 120.734 154.747Z" fill="#F7A952"/>
<path d="M111 112C114.314 112 117 109.314 117 106C117 102.686 114.314 100 111 100C107.686 100 105 102.686 105 106C105 109.314 107.686 112 111 112Z" fill="#302B26"/>
<path d="M113.993 104.363C114.074 105.186 113.46 105.912 112.637 105.993C111.814 106.074 111.088 105.46 111.007 104.637C110.926 103.814 111.54 103.088 112.363 103.007C113.202 102.926 113.928 103.54 113.993 104.363Z" fill="white"/>
<path d="M173.976 100.465C174.27 103.757 171.843 106.682 168.533 106.976C165.242 107.27 162.318 104.842 162.024 101.532C161.73 98.2399 164.157 95.3156 167.467 95.0214C170.776 94.7455 173.682 97.1732 173.976 100.465Z" fill="#302B26"/>
<path d="M170.993 99.3628C171.074 100.186 170.46 100.912 169.637 100.993C168.814 101.074 168.088 100.46 168.007 99.6372C167.926 98.8141 168.54 98.0878 169.363 98.0071C170.186 97.9264 170.912 98.5397 170.993 99.3628Z" fill="white"/>
<path opacity="0.2" d="M116.991 118.504C117.171 120.702 114.645 122.704 111.343 122.97C108.041 123.236 105.208 121.694 105.009 119.496C104.829 117.298 107.355 115.296 110.657 115.03C113.977 114.764 116.81 116.306 116.991 118.504Z" fill="#ED245E"/>
<path opacity="0.2" d="M176.991 113.506C177.171 115.703 174.645 117.704 171.343 117.97C168.041 118.236 165.208 116.695 165.009 114.498C164.829 112.301 167.355 110.299 170.657 110.033C173.977 109.75 176.81 111.309 176.991 113.506Z" fill="#ED245E"/>
<path d="M75 79.3721L76.6457 97.983L82.1627 101C82.1627 101 85.3606 82.7661 89.1944 79.6737C93.0283 76.5814 179.261 75.7705 179.261 75.7705C179.261 75.7705 177.578 79.8246 178.214 81.1822C178.849 82.521 183.674 91.8359 183.674 91.8359C183.674 91.8359 185.171 75.2426 181.748 70.2646C178.345 65.2866 159.194 66.0408 159.194 66.0408L75 79.3721Z" fill="#683A33"/>
<path d="M182.069 53.116C182.069 53.116 195.954 38.3265 192.426 29.9023C190.043 24.1791 159.478 0.342107 137.319 0.00211766C116.154 -0.300095 59.5639 31.8289 56.3366 42.1797C53.5409 51.1705 69.0768 68 69.0768 68L182.069 53.116Z" fill="#295891"/>
<path d="M95.7932 59.2369C87.4668 47.5403 75.4272 39.8679 79.9092 23.6394C79.9655 23.4137 80.0405 23.2069 80.0968 23C67.4384 30.5972 57.6117 38.1943 56.3365 42.2938C53.5422 51.2449 69.0699 68 69.0699 68L99 64.0698C97.9873 62.4338 96.9184 60.8165 95.7932 59.2369Z" fill="#1F4A75"/>
<path d="M183 73.048L182.85 64.4317L182.08 52.3955C182.08 52.3955 140.074 30.6848 69 67.266L74.6333 79L183 73.048Z" fill="#F4CE0F"/>
<path d="M97.9303 63.5925C96.2096 61.2767 94.3755 59.2598 92.8439 57C85.2993 59.7827 77.3576 63.1817 69 67.4024L74.6726 79L104 77.4126C102.903 72.3701 101.088 67.8132 97.9303 63.5925Z" fill="#F2A011"/>
<path d="M75 79.4041C75 79.4041 144.94 91.3477 176.869 85.2817C208.78 79.2346 183.496 64.8797 183.496 64.8797C183.496 64.8797 135.169 49.696 75 79.4041Z" fill="#343F4C"/>
<path d="M125.325 84.2364C118.5 82.6645 110.39 80.5367 105.598 74.901C103.826 72.8115 102.652 70.4728 101.962 68C93.3474 70.722 84.3229 74.3259 75 79.0607C75 79.0607 103.323 84.0256 132 86C129.856 85.3674 127.656 84.7732 125.325 84.2364Z" fill="#222933"/>
<path d="M154.272 116.173C152.88 114.853 151.232 114.099 150.024 112.534C148.559 110.63 148.266 108.5 148.046 106.2C148.028 105.936 147.68 105.936 147.607 106.182C146.692 109.499 147.827 112.949 149.841 115.588C151.141 117.285 153.906 119.377 153.906 121.658C153.906 125.165 148.632 125.937 146.27 127.087C145.849 127.295 145.923 128.086 146.472 127.992C150.042 127.332 157.036 126.635 157 121.602C157 119.453 155.736 117.568 154.272 116.173Z" fill="#F7A952"/>
<path d="M118.866 92.6593C113.365 85.857 102.135 89.1473 101.004 97.5207C100.946 98.0198 101.56 98.1676 101.828 97.7795C105.488 92.1602 111.985 90.8848 118.041 93.639C118.636 93.8793 119.287 93.1769 118.866 92.6593Z" fill="#7A4A3F"/>
<path d="M174.96 91.4958C173.392 88.7627 170.564 87.1156 167.194 87.007C163.94 86.8984 160.57 88.0387 160.009 91.3329C159.931 91.7673 160.377 92.1112 160.822 91.9664C162.798 91.3329 164.56 90.0478 166.574 89.5772C169.46 88.8894 172.365 90.1021 174.476 91.9121C174.786 92.1474 175.115 91.7673 174.96 91.4958Z" fill="#7A4A3F"/>
<path d="M119 127.412C119 127.412 142.284 136.55 169.702 122C169.702 122 171.713 132.412 165.286 136.7C165.286 136.7 161.509 144.639 155.852 142.636C155.852 142.636 150.252 148.31 142.228 144.92C142.228 144.92 133.978 147.579 129.129 142.243C129.092 142.243 119.658 140.707 119 127.412Z" fill="#7A4A3F"/>
<path d="M137.63 133.365C143.831 138.538 153.958 137.481 160.834 134.574C164.122 133.177 167.223 131.194 169.797 128.683C170.304 125.134 169.703 122 169.703 122C156.438 129.099 144.169 130.59 135 130.269C135.676 131.383 136.522 132.44 137.63 133.365Z" fill="#7A4A3F"/>
<path d="M149.673 139.882C140.832 142.083 138.402 137.757 138.402 137.757C131.206 137.106 127.972 132.13 126.645 128.971C121.822 128.129 119 127 119 127C119.654 140.609 129.037 142.159 129.037 142.159C133.86 147.614 142.065 144.896 142.065 144.896C150.047 148.361 155.617 142.561 155.617 142.561C161.243 144.628 165 136.494 165 136.494C159.355 142.58 149.673 139.882 149.673 139.882Z" fill="#683A33"/>
<path d="M180.777 21.6373C172.968 16.3208 164.585 12.0977 156.109 8.00667C156.016 7.96896 155.96 8.10093 156.034 8.15749C162.322 12.0412 168.387 16.3208 174.434 20.5815C179.627 24.239 188.511 28.3489 187.658 35.89C187.64 36.0031 187.788 36.0408 187.844 35.9466C191.646 29.7817 185.228 24.6726 180.777 21.6373Z" fill="#3575B5"/>
<path d="M180.733 58.6233C180.632 57.6263 180.312 56.3502 180.457 55.3532C180.53 54.8348 179.876 54.9146 180.021 55.413C180.297 56.3701 180.167 57.6662 180.181 58.6831C180.196 59.6402 180.268 60.5973 180.297 61.5744C180.312 62.1925 181.068 62.1127 180.995 61.4946C180.908 60.5375 180.835 59.5605 180.733 58.6233Z" fill="#FFFF33"/>
<path d="M181.991 68.059C181.702 67.8755 181.316 68.1507 181.528 68.4626C182.3 69.6369 183.361 70.3157 184.421 71.2331C187.025 73.4899 186.929 76.719 183.785 78.4253C180.487 80.2234 176.783 81.1958 173.215 82.3517C172.849 82.4618 172.984 83.0672 173.369 82.9938C176.263 82.3884 179.04 81.471 181.817 80.5169C183.843 79.8197 186.042 79.0308 187.295 77.2694C189.86 73.7284 184.807 69.7837 181.991 68.059Z" fill="#505E6D"/>
<path d="M75.4194 105.031C75.1057 104.881 74.8473 105.311 75.1057 105.535C78.1874 108.373 80.4202 111.361 81.7857 114.983C80.5678 115.954 79.5898 117.093 78.5195 118.214C78.1874 118.568 78.6856 118.979 79.0547 118.792C80.2172 118.158 81.3429 117.635 82.4316 116.925C82.7084 117.952 82.9483 119.016 83.0959 120.155C83.262 121.388 85.0889 121.22 84.9966 119.987C84.5353 113.919 80.9184 107.701 75.4194 105.031Z" fill="#E89746"/>
<path d="M129.5 201C131.985 201 134 198.985 134 196.5C134 194.015 131.985 192 129.5 192C127.015 192 125 194.015 125 196.5C125 198.985 127.015 201 129.5 201Z" fill="#3575B5"/>
<path d="M136 228.5C136 230.987 133.987 233 131.5 233C129.013 233 127 230.987 127 228.5C127 226.013 129.013 224 131.5 224C133.968 223.981 136 226.013 136 228.5Z" fill="#3575B5"/>
<path d="M136 263.5C136 265.987 133.987 268 131.5 268C129.013 268 127 265.987 127 263.5C127 261.013 129.013 259 131.5 259C133.968 259 136 261.013 136 263.5Z" fill="#3575B5"/>
<path d="M129.5 303C131.985 303 134 300.985 134 298.5C134 296.015 131.985 294 129.5 294C127.015 294 125 296.015 125 298.5C125 300.985 127.015 303 129.5 303Z" fill="#3575B5"/>
<path d="M94.8157 317C94.8157 316.906 94.8347 316.812 94.8347 316.699C97.68 263.003 62.8536 220 62.8536 220C62.8536 220 62.5311 220.639 62 221.748C68.2027 245.542 74.3486 278.659 73.3812 314.087C73.4001 314.087 82.0878 315.628 94.8157 317Z" fill="#1F4A75"/>
<path d="M170.054 317.268C169.57 318.665 169.386 320.081 169.225 321.514C169.087 322.912 168.741 324.434 169.34 325.778C169.478 326.083 169.985 326.065 170.123 325.778C170.699 324.542 170.492 323.145 170.584 321.837C170.699 320.35 170.952 318.862 170.998 317.357C171.044 316.945 170.192 316.856 170.054 317.268Z" fill="#505E6D"/>
<path d="M152 229.868C152 229.868 162.674 227.396 165.896 224C165.896 224 174.092 228.83 178 229.868C178 229.868 175.999 242.774 165 252C165 252.019 153.677 242.792 152 229.868Z" fill="#F4CE0F"/>
<path d="M162.164 227C157.794 228.997 152 230.31 152 230.31C153.675 242.958 165.129 252 165.129 252C167.477 250.077 169.402 248.006 171 245.935C165.552 241.183 162.28 234.212 162.164 227Z" fill="#F2A011"/>
<path d="M0.0950138 656.808C-0.148989 657.624 0.0950139 658.404 0.620558 659.007C1.16487 659.61 2.0095 660 2.96674 660H81.423C82.7556 660 83.9568 659.504 84.7827 658.741C85.6085 657.961 86.0966 656.897 85.9839 655.762C85.9652 655.514 85.9464 655.248 85.9276 655H0.770713C0.507941 655.603 0.282708 656.206 0.0950138 656.808Z" fill="#295891"/>
<path d="M20.7534 660C21.4347 658.269 22.1898 656.608 23 655H0.755004C0.497198 655.601 0.257806 656.219 0.0920737 656.82C0.0368295 657.032 0 657.226 0 657.42C0 657.809 0.0920737 658.198 0.276221 658.534C0.368295 658.71 0.478783 658.869 0.607686 659.011C1.14171 659.611 1.97038 660 2.90953 660H20.7534Z" fill="#1F4A75"/>
<path d="M155.001 654.869C154.964 656.181 155.676 657.369 156.781 658.131C157.587 658.681 158.599 659 159.704 659H231.95C233.093 659 234.104 658.592 234.854 657.954C235.809 657.121 236.259 655.915 235.847 654.692C235.772 654.461 235.66 654.23 235.585 654H155.02C155.02 654.301 155.001 654.603 155.001 654.869Z" fill="#295891"/>
<path d="M155.02 654C155.02 654.301 155.001 654.585 155.001 654.869C154.964 656.181 155.671 657.369 156.769 658.131C157.568 658.681 158.573 659 159.67 659H196C193.526 657.582 190.791 655.897 188.094 654H155.02Z" fill="#1F4A75"/>
</g>
<defs>
<clipPath id="clip0_27_7664">
<rect width="236" height="660" fill="white"/>
</clipPath>
</defs>
</svg>
